<svg width="2662" height="1206" viewBox="0 0 2662 1206" fill="none" xmlns="http://www.w3.org/2000/svg">
<path fill-rule="evenodd" clip-rule="evenodd" d="M1377.1 0.74974L1332.39 1.02065L1304.25 42.7452C1270.53 92.7368 1235.28 145.415 1189.03 214.925C1170.18 243.241 1126.42 308.572 1091.76 360.105C1027.78 455.265 1012.82 477.818 1013.42 478.215C1013.6 478.337 1050.3 478.188 1094.98 477.885L1176.19 477.334L1193.39 451.843C1202.85 437.823 1245.78 373.72 1288.77 309.393C1331.77 245.065 1393.22 153.297 1425.32 105.463C1489.01 10.5683 1489.91 9.2198 1493.22 3.7487L1495.49 0L1458.65 0.238917C1438.39 0.370871 1401.69 0.600791 1377.1 0.74974ZM838.856 270.156C826.478 288.438 790.847 341.445 759.676 387.953L703 472.511L729.586 513.909C744.208 536.678 771.677 578.249 790.628 606.289C809.579 634.33 833.105 669.227 842.91 683.837L860.735 710.403L942.225 711.017C987.043 711.355 1023.84 711.508 1023.99 711.358C1024.14 711.208 1019.17 703.476 1012.96 694.175C995.233 667.66 924.502 562.601 893.338 516.501C875.369 489.921 865.29 474.137 865.664 473.164C865.987 472.321 882.829 447.049 903.092 417.003C936.766 367.068 959.977 332.583 1006.47 263.419C1015.7 249.678 1023.26 238.095 1023.26 237.677C1023.26 237.26 986.831 236.918 942.309 236.918H861.36L838.856 270.156ZM1643.75 245.311C1646.73 249.926 1659 268.108 1671.01 285.714C1683.02 303.32 1700.69 329.346 1710.28 343.549C1719.86 357.751 1743.38 392.401 1762.54 420.547C1781.69 448.693 1797.37 472.585 1797.37 473.64C1797.37 474.695 1786.27 491.928 1772.72 511.934C1746.23 551.016 1671.8 661.5 1651.64 691.672C1644.87 701.795 1639.46 710.202 1639.61 710.354C1639.76 710.506 1676.57 710.362 1721.41 710.033L1802.93 709.437L1816.04 689.852C1823.26 679.08 1847.05 643.726 1868.92 611.288C1916.03 541.415 1958.75 475.205 1957.99 473.238C1956.88 470.357 1908.53 394.622 1896.14 376.369C1889.05 365.923 1865.76 331.646 1844.4 300.198C1823.03 268.75 1804.73 241.646 1803.74 239.969L1801.94 236.918H1638.33L1643.75 245.311ZM1550.18 471.586L1486.51 471.851L1458.81 513.079C1443.57 535.755 1400.76 599.742 1363.68 655.272C1326.59 710.803 1271.91 792.45 1242.16 836.709C1184.76 922.112 1170.38 943.7 1168.31 947.586L1167.03 950L1211.41 949.336C1235.82 948.971 1272.53 948.672 1292.99 948.671L1330.19 948.67L1357.96 907.435C1373.23 884.756 1417.56 818.516 1456.46 760.236C1495.36 701.956 1548.2 623.009 1573.88 584.797C1631.4 499.224 1649.35 472.271 1649.35 471.462C1649.35 471.118 1641.36 470.945 1631.59 471.078C1621.83 471.212 1585.19 471.44 1550.18 471.586Z" fill="white"/>
<path d="M262.5 1048H37.5V1085.5H225C250 1085.5 262.5 1098 262.5 1123V1160.5C262.5 1185.5 250 1198 225 1198H0V1160.5H225V1123H37.5C12.5 1123 0 1110.5 0 1085.5V1048C0 1023 12.5 1010.5 37.5 1010.5H262.5V1048Z" fill="white"/>
<path d="M562.5 1198H300V1160.5H525L562.5 1198ZM562.5 1123H300V1085.5H525L562.5 1123ZM562.5 1048H300V1010.5H525L562.5 1048Z" fill="white"/>
<path d="M862.5 1010.5L750 1198H712.5L600 1010.5H642.773L731.25 1150.83L818.555 1010.5H862.5Z" fill="white"/>
<path d="M1162.5 1198H900V1160.5H1125L1162.5 1198ZM1162.5 1123H900V1085.5H1125L1162.5 1123ZM1162.5 1048H900V1010.5H1125L1162.5 1048Z" fill="white"/>
<path d="M1200 1198V1010.5L1425 1132.67V1010.5H1462.5V1198L1237.5 1078.18V1198H1200Z" fill="white"/>
<path d="M1500 1048V1010.5H1725C1750 1010.5 1762.5 1023 1762.5 1048V1160.5C1762.5 1185.5 1750 1198 1725 1198H1500V1085.5H1537.5V1160.5H1725V1048H1500Z" fill="white"/>
<path d="M2062.5 1198H1800V1160.5H2025L2062.5 1198ZM2062.5 1123H1800V1085.5H2025L2062.5 1123ZM2062.5 1048H1800V1010.5H2025L2062.5 1048Z" fill="white"/>
<path d="M2362.5 1010.5L2250 1198H2212.5L2100 1010.5H2142.77L2231.25 1150.83L2318.55 1010.5H2362.5Z" fill="white"/>
<path fill-rule="evenodd" clip-rule="evenodd" d="M2400 1001.07C2400 1001.19 2490.83 1092.06 2490.95 1092.06C2491.08 1092.06 2519.56 1063.55 2519.56 1063.42C2519.56 1063.36 2505.55 1049.3 2488.42 1032.16L2457.28 1001H2428.64C2412.89 1001 2400 1001.03 2400 1001.07ZM2553.55 1052.2C2525.41 1080.36 2502.38 1103.45 2502.38 1103.5C2502.38 1103.56 2525.41 1126.64 2553.55 1154.8L2604.72 1206H2633.36C2649.11 1206 2662 1205.97 2662 1205.93C2662 1205.88 2638.99 1182.82 2610.86 1154.68L2559.72 1103.5L2610.86 1052.32C2638.99 1024.18 2662 1001.12 2662 1001.07C2662 1001.03 2649.11 1001 2633.36 1001H2604.72L2553.55 1052.2ZM2475.74 1130.41C2467.53 1138.64 2453.19 1153.03 2443.87 1162.37C2434.55 1171.72 2421.11 1185.2 2413.99 1192.33C2402.66 1203.69 2401.07 1205.32 2401.2 1205.44C2401.68 1205.91 2406.51 1205.99 2434.75 1206L2457.27 1206L2519.41 1143.83L2508.52 1132.96C2492.71 1117.19 2490.95 1115.44 2490.8 1115.44C2490.73 1115.44 2483.96 1122.18 2475.74 1130.41Z" fill="black" fill-opacity="0.294"/>
<path fill-rule="evenodd" clip-rule="evenodd" d="M2490.95 1092.06L2519.56 1063.42L2457.28 1001.1H2400.05L2490.95 1092.06ZM2502.38 1103.5L2604.72 1205.9H2661.95L2559.62 1103.5L2661.95 1001.1H2604.72L2502.38 1103.5ZM2473.84 1132.39C2436.07 1170.25 2401.25 1205.22 2401.22 1205.31C2401.2 1205.36 2401.3 1205.44 2401.44 1205.5C2402.26 1205.81 2404.16 1205.83 2430.66 1205.87L2457.27 1205.91L2488.27 1174.9C2505.32 1157.84 2519.26 1143.85 2519.26 1143.81C2519.26 1143.78 2519.2 1143.69 2519.13 1143.61C2519.05 1143.54 2513.82 1138.33 2507.51 1132.04C2501.2 1125.75 2494.86 1119.43 2493.42 1118L2490.79 1115.39L2473.84 1132.39Z" fill="#001EFF"/>
</svg>
